<?xml version="1.0" encoding="utf-8"?>
<!-- Generator: Adobe Illustrator 21.0.0, SVG Export Plug-In . SVG Version: 6.00 Build 0)  -->
<svg version="1.1" id="Layer_1" xmlns="http://www.w3.org/2000/svg" xmlns:xlink="http://www.w3.org/1999/xlink" x="0px" y="0px"
	 viewBox="0 0 206.032 206" style="enable-background:new 0 0 206.032 206;" xml:space="preserve">
<style type="text/css">
	.st0{fill:none;stroke:#309FD9;stroke-width:2;stroke-linecap:round;stroke-linejoin:round;stroke-miterlimit:10;}
	.st1{fill:none;stroke:#11A3EB;stroke-width:2;stroke-linecap:round;stroke-linejoin:round;stroke-miterlimit:10;}
	.st2{fill:none;stroke:#FFB11F;stroke-width:2;stroke-linecap:round;stroke-linejoin:round;stroke-miterlimit:10;}
</style>
<line class="st0" x1="86.748" y1="177.644" x2="116.793" y2="178.131"/>
<line class="st0" x1="86.768" y1="186.725" x2="116.813" y2="187.212"/>
<line class="st0" x1="86.751" y1="195.87" x2="116.796" y2="196.357"/>
<path class="st0" d="M112.218,198.216L112.218,198.216c0,3.182-2.602,5.784-5.784,5.784h-9.879c-3.181,0-5.784-2.602-5.784-5.784
	l0,0"/>
<line class="st0" x1="86.751" y1="195.87" x2="86.751" y2="168.052"/>
<path class="st2" d="M131.289,142.14c7.198-13.993,20.147-23.312,20.077-49.975c-0.075-28.241-22.472-51.412-50.025-51.755
	c-27.554-0.344-49.83,22.27-49.755,50.511c0.097,36.971,25.053,41.218,25.129,70.193c0.009,3.409,3.344,6.859,6.67,6.9l36.586,0.456
	"/>
<path class="st2" d="M73.557,117.795c0,0-22.449-37.758,12.526-59.802"/>
<line class="st2" x1="100.584" y1="147.558" x2="100.584" y2="168.323"/>
<circle class="st2" cx="100.584" cy="138.405" r="9.154"/>
<line class="st2" x1="100.584" y1="1" x2="100.584" y2="25.948"/>
<line class="st2" x1="168.331" y1="92.143" x2="194.254" y2="92.143"/>
<line class="st2" x1="33.613" y1="92.143" x2="8" y2="92.143"/>
<line class="st2" x1="50.168" y1="47.372" x2="39.559" y2="37.122"/>
<line class="st2" x1="151.255" y1="49.324" x2="161.865" y2="39.074"/>
<line class="st2" x1="47.507" y1="131.921" x2="36.897" y2="142.171"/>
<line class="st2" x1="155.913" y1="131.299" x2="166.522" y2="141.549"/>
</svg>
