<?xml version="1.0" encoding="utf-8"?>
<!-- Generator: Adobe Illustrator 21.0.0, SVG Export Plug-In . SVG Version: 6.00 Build 0)  -->
<svg version="1.1" id="Layer_1" xmlns="http://www.w3.org/2000/svg" xmlns:xlink="http://www.w3.org/1999/xlink" x="0px" y="0px"
	 viewBox="0 0 206.032 206" style="enable-background:new 0 0 206.032 206;" xml:space="preserve">
<style type="text/css">
	.st0{fill:none;stroke:#309FD9;stroke-width:2;stroke-linecap:round;stroke-linejoin:round;stroke-miterlimit:10;}
	.st1{fill:none;stroke:#11A3EB;stroke-width:2;stroke-linecap:round;stroke-linejoin:round;stroke-miterlimit:10;}
	.st2{fill:none;stroke:#FFB11F;stroke-width:2;stroke-linecap:round;stroke-linejoin:round;stroke-miterlimit:10;}
</style>
<line class="st1" x1="1" y1="193.578" x2="11.037" y2="193.578"/>
<line class="st1" x1="194.995" y1="193.578" x2="205.032" y2="193.578"/>
<line class="st1" x1="58.251" y1="193.578" x2="67.172" y2="193.578"/>
<line class="st1" x1="136.612" y1="193.578" x2="146.916" y2="193.578"/>
<polyline class="st2" points="33.13,92.996 33.13,39.767 66.728,39.767 "/>
<polyline class="st2" points="169.314,69.043 169.314,15.813 115.557,15.813 "/>
<line class="st2" x1="115.557" y1="15.813" x2="115.557" y2="37.105"/>
<rect x="80.167" y="66.381" class="st1" width="45.246" height="21.68"/>
<rect x="80.167" y="97.515" class="st1" width="45.246" height="21.68"/>
<rect x="80.167" y="128.094" class="st1" width="45.246" height="21.68"/>
<rect x="80.167" y="158.648" class="st1" width="45.246" height="21.68"/>
<line class="st2" x1="33.13" y1="49.969" x2="51.945" y2="49.969"/>
<line class="st2" x1="33.13" y1="59.201" x2="51.945" y2="59.201"/>
<line class="st2" x1="33.13" y1="69.043" x2="51.945" y2="69.043"/>
<line class="st2" x1="33.13" y1="78.552" x2="51.945" y2="78.552"/>
<line class="st1" x1="174.14" y1="115.646" x2="192.955" y2="115.646"/>
<line class="st1" x1="174.14" y1="125.156" x2="192.955" y2="125.156"/>
<polyline class="st1" points="11.037,193.578 11.037,93.883 58.216,93.883 58.216,193.578 "/>
<polyline class="st1" points="146.916,193.578 146.916,84.901 194.431,54.627 194.431,193.578 "/>
<line class="st1" x1="174.14" y1="96.572" x2="192.955" y2="96.572"/>
<line class="st1" x1="174.14" y1="105.804" x2="192.955" y2="105.804"/>
<polyline class="st1" points="67.93,193.578 67.93,14.039 136.612,48.638 136.612,193.578 "/>
</svg>
