<?xml version="1.0" encoding="utf-8"?>
<!-- Generator: Adobe Illustrator 21.0.0, SVG Export Plug-In . SVG Version: 6.00 Build 0)  -->
<svg version="1.1" id="Layer_1" xmlns="http://www.w3.org/2000/svg" xmlns:xlink="http://www.w3.org/1999/xlink" x="0px" y="0px"
	 viewBox="0 0 206.032 206" style="enable-background:new 0 0 206.032 206;" xml:space="preserve">
<style type="text/css">
	.st0{fill:none;stroke:#309FD9;stroke-width:2;stroke-linecap:round;stroke-linejoin:round;stroke-miterlimit:10;}
	.st1{fill:none;stroke:#11A3EB;stroke-width:2;stroke-linecap:round;stroke-linejoin:round;stroke-miterlimit:10;}
	.st2{fill:none;stroke:#FFB11F;stroke-width:2;stroke-linecap:round;stroke-linejoin:round;stroke-miterlimit:10;}
</style>
<rect x="1.032" y="62.366" class="st1" width="181.161" height="105.118"/>
<polyline class="st2" points="12.215,51.183 193.375,51.183 193.375,156.301 182.193,156.301 "/>
<polyline class="st2" points="23.397,40 204.558,40 204.558,145.118 193.375,145.118 "/>
<rect x="12.215" y="73.548" class="st1" width="158.795" height="82.752"/>
<path class="st1" d="M153.117,73.548c0,9.882,8.011,17.892,17.892,17.892"/>
<path class="st1" d="M171.01,138.408c-9.882,0-17.892,8.011-17.892,17.892"/>
<path class="st1" d="M12.215,91.441c9.882,0,17.892-8.011,17.892-17.892"/>
<path class="st1" d="M30.107,156.301c0-9.882-8.011-17.892-17.892-17.892"/>
<circle class="st1" cx="93.849" cy="114.925" r="25.72"/>
</svg>
