<?xml version="1.0" standalone="no"?>
<!DOCTYPE svg PUBLIC "-//W3C//DTD SVG 20010904//EN"
 "http://www.w3.org/TR/2001/REC-SVG-20010904/DTD/svg10.dtd">
<svg version="1.0" xmlns="http://www.w3.org/2000/svg"
 width="500.000000pt" height="500.000000pt" viewBox="0 0 500.000000 500.000000"
 preserveAspectRatio="xMidYMid meet">
<metadata>
Created by potrace 1.11, written by Peter Selinger 2001-2013
</metadata>
<g transform="translate(0.000000,500.000000) scale(0.100000,-0.100000)"
fill="#000000" stroke="none">
<path d="M328 4974 c-84 -26 -138 -103 -138 -195 0 -62 30 -163 76 -257 53
-109 141 -210 239 -272 l64 -40 -26 -56 c-33 -73 -41 -163 -20 -235 35 -118
112 -196 236 -239 36 -13 67 -24 69 -25 1 -1 -6 -22 -17 -47 -81 -190 27 -343
317 -448 37 -14 66 -19 71 -14 5 5 11 30 13 55 l5 47 -79 31 c-102 40 -183 94
-215 143 -33 49 -28 112 14 172 l29 41 -20 68 -19 67 -37 0 c-118 0 -237 86
-259 188 -6 28 -8 66 -4 84 8 42 43 118 54 118 4 0 47 -10 94 -22 47 -12 87
-19 90 -16 3 3 8 28 12 56 l6 51 -42 10 c-22 6 -60 16 -83 22 -77 19 -204 87
-261 139 -72 66 -122 142 -158 241 -39 107 -40 179 -3 208 19 15 41 21 74 21
49 0 45 2 186 -100 103 -73 236 -127 479 -191 92 -24 183 -56 235 -82 150 -74
254 -204 281 -352 6 -33 13 -71 16 -84 4 -22 7 -19 34 29 16 30 36 61 44 70
20 22 19 39 -6 102 -30 76 -102 181 -162 233 -103 92 -215 144 -413 194 -242
61 -378 120 -497 216 -100 80 -179 100 -279 69z"/>
<path d="M4518 4974 c-26 -8 -77 -38 -115 -69 -119 -96 -255 -155 -497 -216
-198 -50 -310 -102 -413 -194 -60 -52 -132 -157 -162 -233 -25 -63 -26 -80 -6
-102 8 -9 28 -40 44 -70 27 -48 30 -51 34 -29 3 13 10 51 16 84 27 148 131
278 281 352 52 26 143 58 235 82 243 64 376 118 479 191 141 102 137 100 186
100 72 0 100 -27 100 -93 0 -67 -45 -196 -94 -270 -21 -31 -62 -79 -93 -107
-57 -52 -184 -120 -263 -140 -25 -6 -62 -16 -84 -21 l-39 -10 6 -51 c4 -28 9
-53 12 -56 3 -3 43 4 90 16 47 12 90 22 94 22 11 0 46 -76 54 -118 26 -133
-109 -272 -263 -272 l-37 0 -19 -67 -20 -68 29 -41 c42 -60 47 -123 14 -172
-32 -49 -113 -103 -215 -143 l-79 -31 5 -47 c2 -25 8 -50 13 -55 5 -5 34 0 71
14 186 67 303 160 333 264 19 64 14 113 -16 184 -11 25 -18 46 -17 47 2 1 33
12 69 25 124 43 201 121 236 239 21 72 13 162 -20 235 l-26 56 64 40 c98 62
186 163 239 272 46 94 76 195 76 257 0 95 -54 169 -142 196 -63 18 -98 18
-160 -1z"/>
<path d="M2442 4769 c-38 -15 -75 -48 -99 -87 -28 -45 -31 -137 -7 -184 17
-33 9 -48 -28 -48 -31 0 -172 -55 -243 -94 -96 -54 -238 -196 -299 -301 -93
-161 -141 -321 -181 -613 -45 -324 -71 -429 -146 -591 -76 -165 -240 -382
-330 -439 -52 -33 -81 -70 -98 -125 -25 -76 36 -166 151 -220 121 -57 377
-111 653 -138 l131 -12 30 -56 c96 -177 343 -187 457 -18 l38 57 172 0 c513 1
1070 83 1237 182 79 48 130 115 130 173 0 50 -49 118 -114 160 -85 54 -224
229 -304 381 -83 160 -116 292 -156 613 -37 290 -69 416 -149 576 -122 246
-311 399 -574 465 l-42 10 19 43 c61 133 -36 279 -182 276 -24 0 -54 -4 -66
-10z m138 -124 c36 -37 33 -89 -8 -126 -36 -33 -60 -36 -102 -14 -69 36 -66
123 5 164 28 16 76 5 105 -24z m126 -305 c116 -29 214 -82 300 -163 180 -168
266 -380 314 -772 48 -399 102 -568 251 -793 31 -48 56 -89 54 -90 -2 -2 -70
8 -152 21 -293 50 -532 67 -965 67 -431 0 -798 -27 -1031 -76 -110 -23 -114
-21 -78 25 52 66 138 218 175 312 54 135 83 258 121 523 41 285 69 396 134
531 108 224 262 357 481 414 105 28 288 28 396 1z m387 -1855 c421 -37 715
-108 782 -187 31 -37 31 -49 0 -86 -80 -95 -454 -172 -985 -202 -102 -5 -235
-10 -297 -10 l-111 0 -7 38 c-9 58 -60 138 -105 168 -26 18 -39 33 -36 43 3 9
14 66 26 126 12 61 23 116 26 124 4 12 47 13 272 8 147 -4 342 -14 435 -22z
m-848 -47 c-7 -35 -18 -89 -25 -120 -11 -56 -11 -56 -53 -63 -107 -18 -196
-102 -221 -208 -7 -31 19 -31 -231 -1 -228 27 -422 72 -517 120 -46 24 -88 66
-88 90 0 29 53 74 123 102 167 70 610 137 918 141 l107 1 -13 -62z"/>
<path d="M2340 4251 c-193 -61 -361 -213 -451 -405 -26 -55 -31 -76 -27 -116
10 -97 88 -170 182 -170 87 0 138 37 187 132 55 108 126 169 245 208 45 15 73
32 98 60 82 91 52 241 -58 291 -51 23 -105 23 -176 0z m152 -110 c10 -9 20
-30 24 -46 8 -44 -24 -80 -89 -99 -113 -33 -230 -134 -288 -248 -46 -90 -97
-110 -150 -57 -49 49 9 178 135 304 74 74 158 125 256 156 59 19 85 17 112
-10z"/>
<path d="M964 1325 c-156 -34 -251 -128 -289 -286 -12 -52 -15 -152 -15 -553
l0 -489 73 5 c88 6 131 26 146 69 7 19 11 112 11 236 l0 204 53 -54 c63 -65
120 -87 222 -87 176 0 292 87 346 258 26 86 36 269 20 369 -23 133 -95 244
-192 293 -91 47 -252 62 -375 35z m226 -200 c101 -53 143 -222 98 -400 -24
-98 -95 -154 -193 -155 -130 0 -205 110 -205 300 0 190 84 291 230 273 25 -3
56 -11 70 -18z"/>
<path d="M1890 1325 c-99 -27 -179 -101 -205 -188 l-14 -47 114 0 c112 0 114
0 142 29 34 33 102 47 178 36 92 -14 135 -86 82 -139 -25 -25 -61 -34 -227
-61 -117 -19 -198 -55 -249 -110 -48 -52 -65 -101 -65 -190 0 -156 92 -258
255 -285 108 -17 264 7 358 55 55 28 111 85 139 140 36 72 44 147 40 375 -3
213 -3 216 -30 261 -31 52 -81 90 -153 114 -71 25 -290 30 -365 10z m330 -515
c0 -172 -89 -270 -235 -258 -70 6 -104 35 -112 98 -11 82 42 136 160 160 32 6
82 20 110 30 76 27 77 27 77 -30z"/>
<path d="M2874 1326 c-158 -36 -248 -123 -290 -281 -11 -39 -14 -161 -14 -547
l0 -498 53 0 c71 0 119 15 148 46 24 25 24 27 24 245 0 120 2 219 4 219 2 0
20 -18 38 -40 19 -22 56 -52 81 -68 43 -25 55 -27 153 -27 101 0 109 2 175 35
118 60 173 160 196 352 14 118 1 253 -33 343 -32 87 -121 174 -209 204 -83 29
-239 37 -326 17z m226 -201 c73 -38 110 -128 110 -265 0 -187 -73 -290 -205
-290 -91 0 -161 56 -190 152 -19 67 -20 219 0 285 18 61 70 117 122 131 45 13
126 6 163 -13z"/>
<path d="M3815 1327 c-75 -19 -155 -67 -187 -111 -60 -83 -72 -200 -29 -283
44 -86 125 -131 310 -172 171 -39 231 -69 231 -118 0 -35 -16 -61 -50 -78 -37
-19 -178 -20 -224 -1 -39 16 -72 56 -81 96 l-7 30 -117 0 -118 0 8 -55 c15
-113 80 -194 191 -237 41 -17 82 -22 183 -26 234 -7 360 43 427 172 18 32 22
59 23 127 0 78 -3 90 -30 135 -25 40 -43 55 -102 85 -39 20 -116 46 -170 58
-208 48 -265 78 -265 136 0 50 33 70 126 73 97 5 136 -10 167 -62 27 -46 56
-56 161 -56 l90 0 -6 38 c-19 107 -101 200 -210 237 -66 23 -252 29 -321 12z"/>
</g>
</svg>
